<svg width="640" height="480" viewBox="0 0 640 480" fill="none" xmlns="http://www.w3.org/2000/svg">
  <rect width="640" height="480" rx="32" fill="#f8fafc"/>
  <circle cx="320" cy="240" r="168" fill="#e2e8f0"/>
  <path d="M230 206c0-56 42-96 100-96s100 40 100 96v116c0 42-34 76-76 76h-48c-42 0-76-34-76-76V206z" fill="#111827"/>
  <path d="M430 218c54 10 82 40 82 84 0 44-30 74-82 82" stroke="#374151" stroke-width="22" stroke-linecap="round"/>
  <path d="M230 210l-86 26c-20 6-20 34 0 40l86 24" fill="#374151"/>
  <rect x="276" y="162" width="108" height="154" rx="28" fill="#cbd5e1"/>
  <path d="M286 96h88" stroke="#111827" stroke-width="18" stroke-linecap="round"/>
</svg>
